<svg width="26" height="26" viewBox="0 0 26 26" fill="none" xmlns="http://www.w3.org/2000/svg">
<path d="M14.9706 18.1627C15.2116 18.2733 15.483 18.2986 15.7403 18.2344C15.9975 18.1701 16.2252 18.0201 16.3858 17.8092L16.8 17.2667C17.0173 16.9769 17.2991 16.7417 17.6231 16.5797C17.9471 16.4177 18.3044 16.3334 18.6666 16.3334H22.1666C22.7855 16.3334 23.379 16.5792 23.8165 17.0168C24.2541 17.4544 24.5 18.0478 24.5 18.6667V22.1667C24.5 22.7855 24.2541 23.379 23.8165 23.8166C23.379 24.2542 22.7855 24.5 22.1666 24.5C16.5971 24.5 11.2556 22.2875 7.31738 18.3493C3.37912 14.411 1.16663 9.06957 1.16663 3.50002C1.16663 2.88118 1.41246 2.28769 1.85004 1.8501C2.28763 1.41252 2.88112 1.16669 3.49996 1.16669H6.99996C7.6188 1.16669 8.21229 1.41252 8.64987 1.8501C9.08746 2.28769 9.33329 2.88118 9.33329 3.50002V7.00002C9.33329 7.36226 9.24895 7.71952 9.08696 8.04352C8.92496 8.36751 8.68975 8.64934 8.39996 8.86669L7.85396 9.27619C7.63978 9.43973 7.48882 9.67237 7.42672 9.9346C7.36461 10.1968 7.39521 10.4725 7.51329 10.7147C9.10775 13.9532 11.7301 16.5723 14.9706 18.1627Z" stroke="white" stroke-width="2.33333" stroke-linecap="round" stroke-linejoin="round"/>
</svg>
