<svg width="40" height="40" viewBox="0 0 40 40" fill="none" xmlns="http://www.w3.org/2000/svg">
<path d="M10 15C12.7614 15 15 12.7614 15 10C15 7.23858 12.7614 5 10 5C7.23858 5 5 7.23858 5 10C5 12.7614 7.23858 15 10 15Z" stroke="#D6D3D1" stroke-width="3.33333" stroke-linecap="round" stroke-linejoin="round"/>
<path d="M13.5333 13.5333L20 20" stroke="#D6D3D1" stroke-width="3.33333" stroke-linecap="round" stroke-linejoin="round"/>
<path d="M33.3333 6.66663L13.5333 26.4666" stroke="#D6D3D1" stroke-width="3.33333" stroke-linecap="round" stroke-linejoin="round"/>
<path d="M10 35C12.7614 35 15 32.7614 15 30C15 27.2386 12.7614 25 10 25C7.23858 25 5 27.2386 5 30C5 32.7614 7.23858 35 10 35Z" stroke="#D6D3D1" stroke-width="3.33333" stroke-linecap="round" stroke-linejoin="round"/>
<path d="M24.6667 24.6666L33.3333 33.3333" stroke="#D6D3D1" stroke-width="3.33333" stroke-linecap="round" stroke-linejoin="round"/>
</svg>
