<svg width="40" height="40" viewBox="0 0 40 40" fill="none" xmlns="http://www.w3.org/2000/svg">
<path d="M26.6667 35V31.6667C26.6667 29.8986 25.9643 28.2029 24.7141 26.9526C23.4638 25.7024 21.7682 25 20 25H10C8.23193 25 6.53624 25.7024 5.286 26.9526C4.03575 28.2029 3.33337 29.8986 3.33337 31.6667V35" stroke="#D6D3D1" stroke-width="3.33333" stroke-linecap="round" stroke-linejoin="round"/>
<path d="M26.6666 5.21338C28.0962 5.584 29.3623 6.41882 30.2661 7.58682C31.1699 8.75481 31.6603 10.1899 31.6603 11.6667C31.6603 13.1436 31.1699 14.5786 30.2661 15.7466C29.3623 16.9146 28.0962 17.7494 26.6666 18.12" stroke="#D6D3D1" stroke-width="3.33333" stroke-linecap="round" stroke-linejoin="round"/>
<path d="M36.6666 35V31.6667C36.6655 30.1896 36.1739 28.7546 35.2689 27.5872C34.3639 26.4198 33.0968 25.586 31.6666 25.2167" stroke="#D6D3D1" stroke-width="3.33333" stroke-linecap="round" stroke-linejoin="round"/>
<path d="M15 18.3333C18.6819 18.3333 21.6667 15.3486 21.6667 11.6667C21.6667 7.98477 18.6819 5 15 5C11.3181 5 8.33337 7.98477 8.33337 11.6667C8.33337 15.3486 11.3181 18.3333 15 18.3333Z" stroke="#D6D3D1" stroke-width="3.33333" stroke-linecap="round" stroke-linejoin="round"/>
</svg>

