<svg width="131" height="54" viewBox="0 0 131 54" fill="none" xmlns="http://www.w3.org/2000/svg">
<path d="M56.34 13.12C55.87 12.76 55.78 12.3 55.58 11.94C54.41 9.82 52.54 8.66 50.34 7.82C46.89 6.51 43.72 7.34 40.62 8.89C37.77 10.32 35.64 12.62 33.4 14.8C31.92 16.24 30.37 17.58 28.45 18.44C27.31 18.95 26.13 18.9 25.03 18.64C22.5 18.03 20.78 16.46 20.27 13.81C19.67 10.7 22.05 7.12 25.84 7.52C27.48 7.7 28.77 8.72 29.52 10.29C29.99 11.27 30.08 12.28 29.92 13.34C29.81 14.07 28.49 15.42 27.78 15.54C27.69 15.55 27.59 15.52 27.55 15.35C27.9 15.19 28.24 15.01 28.55 14.74C29.56 13.85 29.86 12.73 29.46 11.51C28.99 10.03 28.11 8.83 26.53 8.34C24.26 7.63 21.71 9.1 21.18 11.43C20.5 14.4 22.18 16.89 25.16 17.54C26.9 17.92 28.31 17.31 29.66 16.41C31.12 15.44 32.25 14.08 33.54 12.91C36.54 10.18 39.72 7.71 43.77 6.79C48.17 5.79 51.99 6.92 55.04 10.3C55.7 11.03 56.26 11.91 56.34 13.12Z" fill="#1C1917"/>
<path d="M102.64 15.45C101.83 15.42 101.35 14.87 100.91 14.32C100.15 13.38 100.24 12.25 100.46 11.19C100.88 9.2 103.13 7.48 105.16 7.49C108.1 7.51 110.46 10.39 110.14 13.46C109.66 18.03 104.13 20.34 100.37 17.65C98.4401 16.27 96.7601 14.65 95.1001 12.98C92.5101 10.38 89.5901 8.34 85.9501 7.45C82.0601 6.51 77.5001 8.07 75.2401 11.18C74.9901 11.53 74.7701 11.91 74.5501 12.28C74.4501 12.45 74.4201 12.79 74.1401 12.63C73.9501 12.52 74.0301 12.22 74.1401 12.03C74.4901 11.45 74.8201 10.85 75.2501 10.33C76.4001 8.91 77.9001 7.99 79.5901 7.28C81.6101 6.43 83.6801 6.23 85.7801 6.62C88.4901 7.12 90.9401 8.24 93.1501 9.9C95.3401 11.55 97.3301 13.43 99.3101 15.32C100.25 16.21 101.35 16.89 102.54 17.38C104.45 18.15 107.1 17.3 108.31 15.72C109.86 13.71 109.42 10.96 108.18 9.6C106.06 7.26 102.49 7.94 101.32 10.5C101.14 10.89 100.93 11.24 100.82 11.68C100.41 13.44 101.22 14.55 102.62 15.44L102.64 15.45Z" fill="#1C1917"/>
<path d="M56.37 1.4C57.07 1.91 57.61 2.59 58.18 3.24C60.24 5.57 62.42 7.77 64.55 10.03C65.03 10.54 65.28 10.51 65.78 9.99C68.45 7.15 71.14 4.32 73.82 1.48C73.88 1.41 73.97 1.37 74.22 1.18C73.82 2.07 73.3 2.64 72.83 3.21C70.7 5.82 68.74 8.56 66.7 11.23C66.05 12.09 66.23 12.93 66.44 13.76C66.61 14.46 67.18 15 67.71 15.51C68.03 15.82 68.4 15.65 68.73 15.51C70.19 14.92 71.64 15.53 72.44 17.09C73.02 18.23 72.49 19.92 71.32 20.66C70.11 21.42 68.75 21.31 67.65 20.28C66.84 19.51 66.33 18.06 67.14 16.83C67.46 16.33 67.46 15.97 66.97 15.51C66.43 15 66.01 14.36 65.58 13.75C65.26 13.3 65.02 13.29 64.73 13.77C64.3 14.48 63.75 15.1 63.18 15.69C62.86 16.02 62.78 16.3 63.08 16.7C64.16 18.12 63.4 20.08 61.85 20.85C60.37 21.59 58.63 20.91 57.87 19.27C57.21 17.84 58.02 16.11 59.59 15.48C60.31 15.19 60.98 15.1 61.68 15.52C62.15 15.81 62.53 15.66 62.9 15.26C63.66 14.45 64.08 13.51 64.11 12.39C64.12 11.89 63.88 11.5 63.6 11.14C61.59 8.53 59.68 5.84 57.58 3.3C57.11 2.73 56.68 2.12 56.23 1.54C56.28 1.5 56.32 1.45 56.37 1.41V1.4ZM63.08 18.16C63.1 17.04 61.84 15.82 60.64 15.78C59.47 15.75 58.18 17.02 58.18 18.2C58.18 19.39 59.38 20.6 60.56 20.62C61.78 20.64 63.06 19.39 63.07 18.16H63.08ZM69.72 20.59C71.14 20.61 72.04 19.45 72.15 18.17C72.25 17.07 70.93 15.82 69.79 15.81C68.54 15.8 67.26 16.99 67.25 18.16C67.25 19.36 68.5 20.59 69.71 20.58L69.72 20.59ZM65.03 11.22C64.64 11.24 64.47 11.56 64.47 11.94C64.47 12.35 64.76 12.64 65.15 12.64C65.56 12.64 65.91 12.39 65.87 11.92C65.84 11.49 65.56 11.23 65.02 11.22H65.03Z" fill="#1C1917"/>
<path d="M55.1699 16.73C55.1299 16.21 55.1199 15.75 55.0699 15.31C54.6699 11.68 51.9599 9.75 49.3799 9.24C47.7599 8.92 46.1299 8.94 44.5899 9.62C42.1699 10.69 40.8699 12.75 41.2799 15.45C41.5299 17.07 43.4299 18.37 45.0199 18.11C46.0799 17.93 46.9399 16.79 46.8999 15.59C46.8599 14.28 46.0799 13.37 44.8699 13.26C44.3299 13.21 43.8699 13.36 43.5599 13.86C43.4399 14.06 43.2499 14.21 43.0199 14.02C42.8099 13.84 42.9299 13.63 43.0599 13.44C43.8199 12.34 45.3299 12.2 46.5499 13.12C48.3299 14.46 48.0399 17.28 46.2199 18.55C44.5199 19.73 41.2599 18.38 40.5399 15.96C39.7599 13.34 41.3899 10.53 43.2899 9.42C46.8399 7.36 51.4199 8.29 53.8399 11.13C55.1699 12.69 55.6699 14.51 55.3299 16.54C55.3299 16.6 55.2499 16.65 55.1599 16.76L55.1699 16.73Z" fill="#1C1917"/>
<path d="M75.0001 15.34C74.7701 13.88 75.2801 12.78 75.9501 11.79C78.5601 7.87 84.5601 7.06 88.0501 10.19C89.7401 11.71 90.4101 13.65 89.7901 15.91C89.2401 17.92 86.8501 19.57 84.5201 18.73C83.8101 18.48 83.3301 17.95 83.0601 17.29C82.1301 14.98 82.6701 13.5 84.8001 12.61C85.6001 12.28 86.9401 12.79 87.3401 13.55C87.4301 13.72 87.5501 13.91 87.3501 14.07C87.1601 14.22 86.9901 14.08 86.8401 13.96C85.7801 13.11 85.2201 13.04 84.4001 13.62C83.4601 14.29 83.1701 15.34 83.5901 16.53C83.9601 17.59 84.8401 18.18 85.9301 18.12C87.7101 18.02 89.1701 16.52 89.1901 14.73C89.2301 11.72 87.1601 9.68 84.1701 9.18C81.8801 8.8 79.6801 9.23 77.7801 10.69C76.4601 11.7 75.6601 13.05 75.3501 14.68C75.3301 14.8 75.3001 14.92 75.2601 15.03C75.2401 15.09 75.1701 15.14 75.0001 15.35V15.34Z" fill="#1C1917"/>
<path d="M33.3701 18.09C33.5001 16.81 33.9701 15.79 35.0601 15.14C35.6401 14.79 36.2601 14.52 36.8901 14.26C37.9701 13.81 38.7901 13.04 39.4101 12.04C39.5001 11.9 39.5901 11.64 39.8401 11.77C40.0201 11.86 39.9501 12.07 39.9101 12.23C39.4601 14.19 38.5001 15.81 36.7701 16.93C36.0801 17.37 35.3401 17.75 34.8501 18.45C34.6101 18.79 34.3601 19.11 34.3601 19.55C34.3601 19.75 34.3301 19.97 34.0901 20C33.8101 20.03 33.7201 19.82 33.6701 19.6C33.5601 19.08 33.4601 18.56 33.3701 18.09Z" fill="#1C1917"/>
<path d="M91.1 5.15C92.26 5.15 93.32 5.45 94.3 6.01C95.32 6.59 96.37 6.8 97.49 6.35C97.64 6.29 97.81 6.16 97.96 6.32C98.13 6.51 97.96 6.68 97.87 6.84C96.93 8.33 94.84 8.93 93.24 8.16C92.83 7.96 92.42 7.74 92.04 7.49C90.93 6.77 89.78 6.18 88.42 6.13C88.24 6.13 87.97 6.13 87.93 5.91C87.89 5.64 88.18 5.68 88.34 5.61C89.23 5.26 90.17 5.16 91.1 5.15Z" fill="#1C1917"/>
<path d="M96.9301 18.3C96.9101 18.63 96.8501 19.16 96.6701 19.67C96.6001 19.86 96.4701 20.02 96.2401 19.99C96.0401 19.96 96.0001 19.78 95.9801 19.6C95.8401 18.5 95.1401 17.82 94.2401 17.33C92.2501 16.25 91.0001 14.62 90.4701 12.43C90.4201 12.21 90.2501 11.91 90.5401 11.79C90.7901 11.69 90.8701 12.01 90.9801 12.17C91.8501 13.45 93.1501 14.1 94.5001 14.73C95.9201 15.38 96.9501 16.38 96.9201 18.3H96.9301Z" fill="#1C1917"/>
<path d="M35.3399 8.45C34.0399 8.45 33.1099 7.81 32.4499 6.71C32.3799 6.59 32.2599 6.44 32.4199 6.33C32.4999 6.27 32.6699 6.27 32.7599 6.32C33.9999 6.9 35.0899 6.49 36.2099 5.92C38.0799 4.96 40.0399 5.02 42.0099 5.58C42.1899 5.63 42.4099 5.7 42.3699 5.95C42.3399 6.11 42.1699 6.15 42.0199 6.15C40.5299 6.13 39.3099 6.84 38.1399 7.62C37.2799 8.19 36.3899 8.54 35.3399 8.45Z" fill="#1C1917"/>
<path d="M72.75 12.01C72.75 10.51 73.62 9.45 74.51 8.44C76.17 6.54 78.33 5.39 80.74 4.77C82.8 4.23 84.89 3.82 86.95 3.29C88.24 2.96 89.5 2.55 90.32 1.33C90.58 0.939999 90.46 0.489999 90.71 0.129999C90.92 0.959999 90.65 1.69 90.07 2.25C89.24 3.06 88.19 3.48 87.09 3.81C84.45 4.6 81.72 5.08 79.13 6.03C76.83 6.87 75 8.28 73.64 10.34C73.29 10.88 73.16 11.51 72.76 12.01H72.75Z" fill="#1C1917"/>
<path d="M57.52 11.91C56.85 10.63 56.24 9.54 55.34 8.65C54.16 7.51 52.83 6.59 51.28 6.04C48.72 5.13 46.04 4.65 43.45 3.83C42.25 3.45 41.04 3.07 40.15 2.09C39.61 1.5 39.47 0.88 39.73 0C39.65 1.93 41.09 2.43 42.48 2.92C44.86 3.76 47.37 4.1 49.78 4.8C53.16 5.77 55.93 7.62 57.48 10.94C57.61 11.21 57.61 11.21 57.52 11.9V11.91Z" fill="#1C1917"/>
<path d="M13.73 28.96H13.07C12.58 28.96 12.27 29.03 12.12 29.16C11.97 29.29 11.9 29.59 11.9 30.04V37.1C11.9 37.97 11.86 38.65 11.8 39.13C11.73 39.61 11.55 40.05 11.26 40.45C10.46 41.59 9.02 42.15 6.94 42.15C3.37 42.15 1.58 40.83 1.58 38.18V28.96H0V28.34H6.75V28.96H5.01V38.12C5.01 39.26 5.22 40.09 5.65 40.61C6.08 41.14 6.78 41.4 7.75 41.4C8.77 41.4 9.59 41.12 10.2 40.55C10.62 40.18 10.89 39.69 11.01 39.1C11.09 38.71 11.13 38.05 11.13 37.11V30.03C11.13 29.56 11.07 29.26 10.95 29.15C10.83 29.03 10.55 28.97 10.11 28.97H9.45V28.35H13.73V28.97V28.96Z" fill="#1C1917"/>
<path d="M28.67 41.51C28.19 41.72 27.75 41.88 27.35 41.97C26.96 42.06 26.61 42.11 26.32 42.11C25.72 42.11 25.21 42.03 24.77 41.86C24.33 41.69 23.98 41.46 23.7 41.16C23.31 40.73 23.07 40.22 22.96 39.64C22.86 39.05 22.8 38.3 22.8 37.39C22.8 36.48 22.6 35.84 22.2 35.46C21.8 35.09 21.11 34.9 20.12 34.9H19.77V41.17H21.54V41.83H14.77V41.17H16.35V28.95H14.77V28.33H22.31C23.87 28.33 25.07 28.59 25.89 29.1C26.71 29.61 27.13 30.34 27.13 31.28C27.13 32.22 26.74 33.05 25.96 33.65C25.18 34.25 24.07 34.54 22.65 34.54V34.71C24.15 34.92 25.19 35.39 25.79 36.11C26.39 36.83 26.68 37.98 26.68 39.56C26.68 40.16 26.73 40.58 26.85 40.81C26.96 41.05 27.2 41.17 27.56 41.17C27.81 41.17 28.11 41.09 28.47 40.94L28.68 41.5L28.67 41.51ZM23.46 31.7C23.46 30.47 23.36 29.7 23.17 29.4C22.98 29.1 22.41 28.95 21.49 28.95H19.79V34.23H21.49C22.32 34.23 22.86 34.06 23.1 33.71C23.34 33.36 23.46 32.69 23.46 31.69V31.7Z" fill="#1C1917"/>
<path d="M42.4 38.12C42.4 39.26 41.93 40.16 41 40.83C40.07 41.5 38.79 41.84 37.17 41.84H29.77V41.18H31.22V28.96H29.77V28.34H37.31C38.74 28.34 39.85 28.63 40.65 29.21C41.45 29.79 41.85 30.57 41.85 31.56C41.85 33.21 40.56 34.22 37.99 34.59V34.76C40.93 35.01 42.39 36.13 42.39 38.13L42.4 38.12ZM38.29 31.68C38.29 30.45 38.16 29.69 37.9 29.39C37.64 29.1 36.92 28.95 35.76 28.95H34.6V34.41H35.89C36.9 34.41 37.56 34.23 37.85 33.88C38.15 33.53 38.3 32.79 38.3 31.67L38.29 31.68ZM38.66 38.08C38.66 36.86 38.49 36.04 38.16 35.63C37.83 35.21 37.14 35.01 36.1 35.01H34.58V41.18H36.39C37.36 41.18 37.98 40.99 38.25 40.6C38.52 40.21 38.65 39.37 38.65 38.09L38.66 38.08Z" fill="#1C1917"/>
<path d="M57.36 41.84H50.82V41.18H52.46L51.28 38.02H47.17L46.28 40.33C46.23 40.41 46.2 40.57 46.2 40.8C46.2 41.05 46.4 41.17 46.8 41.17H48.01V41.83H43.79V41.17H44.62C44.86 41.17 45.05 41.09 45.2 40.93C45.35 40.77 45.5 40.5 45.64 40.13L50.27 28.06H51.04L56.14 41.17H57.35V41.83L57.36 41.84ZM51.04 37.35L49.26 32.62L47.4 37.35H51.04Z" fill="#1C1917"/>
<path d="M71.65 28.96H70.86C70.51 28.96 70.28 29.03 70.15 29.17C70.03 29.31 69.96 29.57 69.96 29.96V42.15H69.4L60.57 30V40.43C60.57 40.93 60.83 41.18 61.34 41.18H62.54V41.84H57.99V41.18H59.03C59.32 41.18 59.51 41.12 59.61 40.99C59.71 40.87 59.76 40.64 59.76 40.3V29.66C59.76 29.38 59.7 29.2 59.59 29.1C59.48 29 59.23 28.95 58.85 28.95H58V28.33H63.48L69.19 36.1V29.95C69.19 29.53 69.13 29.26 69 29.14C68.88 29.02 68.61 28.95 68.19 28.95H67.32V28.33H71.64V28.95L71.65 28.96Z" fill="#1C1917"/>
<path d="M93.86 41.84H87.17V41.18H88.79V35.28H84.28V41.18H85.9V41.84H79.21V41.18H80.85V28.99H79.21V28.37H85.9V28.99H84.28V34.52H88.79V28.99H87.17V28.37H93.86V28.99H92.22V41.18H93.86V41.84Z" fill="#1C1917"/>
<path d="M108.13 41.84H101.59V41.18H103.23L102.05 38.02H97.94L97.05 40.33C97 40.41 96.97 40.57 96.97 40.8C96.97 41.05 97.1701 41.17 97.5701 41.17H98.7701V41.83H94.55V41.17H95.3801C95.6201 41.17 95.8101 41.09 95.9601 40.93C96.1101 40.77 96.2601 40.5 96.4001 40.13L101.03 28.06H101.8L106.9 41.17H108.11V41.83L108.13 41.84ZM101.81 37.35L100.03 32.62L98.1701 37.35H101.81Z" fill="#1C1917"/>
<path d="M115.59 41.84H108.78V41.18H110.44V28.96H108.78V28.34H115.59V28.96H113.93V41.18H115.59V41.84Z" fill="#1C1917"/>
<path d="M130.71 41.51C130.23 41.72 129.79 41.88 129.39 41.97C129 42.06 128.65 42.11 128.36 42.11C127.76 42.11 127.25 42.03 126.81 41.86C126.37 41.69 126.02 41.46 125.74 41.16C125.35 40.73 125.11 40.22 125 39.64C124.9 39.05 124.84 38.3 124.84 37.39C124.84 36.48 124.64 35.84 124.24 35.46C123.84 35.09 123.15 34.9 122.16 34.9H121.81V41.17H123.58V41.83H116.81V41.17H118.39V28.95H116.81V28.33H124.35C125.91 28.33 127.11 28.59 127.93 29.1C128.75 29.61 129.17 30.34 129.17 31.28C129.17 32.22 128.78 33.05 128 33.65C127.22 34.25 126.11 34.54 124.69 34.54V34.71C126.19 34.92 127.23 35.39 127.83 36.11C128.43 36.83 128.72 37.98 128.72 39.56C128.72 40.16 128.78 40.58 128.89 40.81C129 41.05 129.24 41.17 129.6 41.17C129.85 41.17 130.15 41.09 130.51 40.94L130.72 41.5L130.71 41.51ZM125.5 31.7C125.5 30.47 125.4 29.7 125.21 29.4C125.02 29.1 124.46 28.95 123.53 28.95H121.83V34.23H123.53C124.36 34.23 124.9 34.06 125.14 33.71C125.38 33.36 125.5 32.69 125.5 31.69V31.7Z" fill="#1C1917"/>
<path d="M23.74 50.34C23.97 50.3 24.27 50.27 24.65 50.27C25.12 50.27 25.46 50.38 25.67 50.57C25.87 50.74 25.99 51.01 25.99 51.33C25.99 51.65 25.89 51.92 25.71 52.11C25.46 52.38 25.05 52.51 24.59 52.51C24.45 52.51 24.32 52.51 24.21 52.48V53.94H23.74V50.33V50.34ZM24.22 52.1C24.32 52.13 24.45 52.14 24.61 52.14C25.18 52.14 25.53 51.86 25.53 51.36C25.53 50.86 25.19 50.64 24.67 50.64C24.46 50.64 24.31 50.66 24.23 50.68V52.1H24.22Z" fill="#1C1917"/>
<path d="M28.25 50.34C28.49 50.29 28.83 50.26 29.15 50.26C29.65 50.26 29.98 50.35 30.21 50.56C30.39 50.72 30.5 50.97 30.5 51.25C30.5 51.73 30.2 52.05 29.81 52.18V52.2C30.09 52.3 30.26 52.56 30.35 52.94C30.47 53.45 30.56 53.8 30.63 53.94H30.14C30.08 53.84 30 53.52 29.9 53.07C29.79 52.57 29.6 52.38 29.17 52.36H28.73V53.94H28.26V50.34H28.25ZM28.72 52.01H29.2C29.7 52.01 30.02 51.73 30.02 51.32C30.02 50.85 29.68 50.64 29.18 50.64C28.95 50.64 28.79 50.66 28.71 50.68V52.01H28.72Z" fill="#1C1917"/>
<path d="M34.68 52.24H33.26V53.56H34.84V53.96H32.79V50.31H34.76V50.71H33.26V51.86H34.68V52.25V52.24Z" fill="#1C1917"/>
<path d="M40.16 52.34C40.13 51.83 40.1 51.22 40.11 50.76H40.09C39.97 51.19 39.81 51.64 39.63 52.15L38.99 53.92H38.63L38.04 52.18C37.87 51.67 37.72 51.19 37.62 50.76H37.61C37.6 51.21 37.57 51.83 37.54 52.37L37.44 53.94H36.99L37.24 50.29H37.84L38.46 52.06C38.61 52.51 38.74 52.91 38.83 53.29H38.85C38.94 52.92 39.07 52.52 39.23 52.06L39.88 50.29H40.48L40.71 53.94H40.25L40.16 52.34Z" fill="#1C1917"/>
<path d="M43.5301 50.3V53.95H43.0601V50.3H43.5301Z" fill="#1C1917"/>
<path d="M46.45 50.3V52.46C46.45 53.28 46.81 53.62 47.3 53.62C47.84 53.62 48.19 53.26 48.19 52.46V50.3H48.67V52.43C48.67 53.55 48.08 54.01 47.29 54.01C46.54 54.01 45.98 53.58 45.98 52.45V50.3H46.46H46.45Z" fill="#1C1917"/>
<path d="M54.19 52.34C54.16 51.83 54.13 51.22 54.14 50.76H54.12C54 51.19 53.84 51.64 53.66 52.15L53.02 53.92H52.66L52.07 52.18C51.9 51.67 51.75 51.19 51.65 50.76H51.64C51.63 51.21 51.6 51.83 51.57 52.37L51.47 53.94H51.02L51.27 50.29H51.87L52.49 52.06C52.64 52.51 52.77 52.91 52.86 53.29H52.88C52.97 52.92 53.1 52.52 53.26 52.06L53.91 50.29H54.51L54.74 53.94H54.28L54.19 52.34Z" fill="#1C1917"/>
<path d="M60.3301 50.3V51.83H62.1001V50.3H62.5801V53.95H62.1001V52.24H60.3301V53.95H59.8601V50.3H60.3301Z" fill="#1C1917"/>
<path d="M65.61 52.8L65.23 53.95H64.74L65.98 50.3H66.55L67.8 53.95H67.3L66.91 52.8H65.61ZM66.81 52.43L66.45 51.38C66.37 51.14 66.31 50.93 66.26 50.71H66.25C66.2 50.93 66.14 51.15 66.07 51.37L65.71 52.43H66.81Z" fill="#1C1917"/>
<path d="M70.43 50.3V53.95H69.96V50.3H70.43Z" fill="#1C1917"/>
<path d="M72.8799 50.34C73.1199 50.29 73.4599 50.26 73.7899 50.26C74.2899 50.26 74.6199 50.35 74.8499 50.56C75.0299 50.72 75.1399 50.97 75.1399 51.25C75.1399 51.73 74.8399 52.05 74.4499 52.18V52.2C74.7299 52.3 74.8999 52.56 74.9899 52.94C75.1099 53.45 75.1999 53.8 75.2699 53.94H74.7799C74.7199 53.84 74.6399 53.52 74.5399 53.07C74.4299 52.57 74.2399 52.38 73.8099 52.36H73.3699V53.94H72.8999V50.34H72.8799ZM73.3499 52.01H73.8299C74.3299 52.01 74.6499 51.73 74.6499 51.32C74.6499 50.85 74.3099 50.64 73.8099 50.64C73.5799 50.64 73.4199 50.66 73.3399 50.68V52.01H73.3499Z" fill="#1C1917"/>
<path d="M80.12 53.37C80.33 53.5 80.64 53.61 80.97 53.61C81.45 53.61 81.73 53.36 81.73 52.99C81.73 52.65 81.54 52.45 81.04 52.26C80.44 52.05 80.08 51.74 80.08 51.23C80.08 50.66 80.55 50.24 81.26 50.24C81.63 50.24 81.9 50.33 82.07 50.42L81.94 50.8C81.82 50.73 81.58 50.63 81.25 50.63C80.75 50.63 80.56 50.93 80.56 51.18C80.56 51.52 80.78 51.69 81.29 51.88C81.91 52.12 82.22 52.42 82.22 52.95C82.22 53.51 81.8 54 80.94 54C80.59 54 80.2 53.9 80.01 53.77L80.13 53.37H80.12Z" fill="#1C1917"/>
<path d="M85.1801 50.7H84.0701V50.3H86.7701V50.7H85.6501V53.95H85.1701V50.7H85.1801Z" fill="#1C1917"/>
<path d="M89.2701 50.3V52.46C89.2701 53.28 89.6301 53.62 90.1201 53.62C90.6601 53.62 91.0101 53.26 91.0101 52.46V50.3H91.4901V52.43C91.4901 53.55 90.9 54.01 90.11 54.01C89.36 54.01 88.8 53.58 88.8 52.45V50.3H89.2801H89.2701Z" fill="#1C1917"/>
<path d="M93.9299 50.34C94.2199 50.3 94.5599 50.26 94.9299 50.26C95.6099 50.26 96.0899 50.42 96.4099 50.71C96.7399 51.01 96.9199 51.43 96.9199 52.02C96.9199 52.61 96.7399 53.1 96.3899 53.44C96.0499 53.78 95.4899 53.97 94.7799 53.97C94.4399 53.97 94.1599 53.95 93.9199 53.93V50.34H93.9299ZM94.3999 53.57C94.5199 53.59 94.6899 53.6 94.8799 53.6C95.8899 53.6 96.4399 53.04 96.4399 52.05C96.4399 51.19 95.9599 50.64 94.9599 50.64C94.7199 50.64 94.5299 50.66 94.4099 50.69V53.57H94.3999Z" fill="#1C1917"/>
<path d="M99.6299 50.3V53.95H99.1599V50.3H99.6299Z" fill="#1C1917"/>
<path d="M105.2 52.08C105.2 53.34 104.44 54 103.5 54C102.56 54 101.86 53.25 101.86 52.15C101.86 50.99 102.58 50.23 103.56 50.23C104.54 50.23 105.2 50.99 105.2 52.08ZM102.37 52.14C102.37 52.92 102.79 53.62 103.53 53.62C104.27 53.62 104.7 52.93 104.7 52.1C104.7 51.37 104.32 50.62 103.53 50.62C102.74 50.62 102.36 51.34 102.36 52.14H102.37Z" fill="#1C1917"/>
</svg>
